<svg width="154" height="166" viewBox="0 0 154 166" fill="none" xmlns="http://www.w3.org/2000/svg">
<path d="M100.528 92.4524C101.23 92.4524 101.928 92.4886 102.626 92.5566C103.319 92.6246 104.012 92.7288 104.701 92.8648C105.385 93.0007 106.065 93.1729 106.736 93.3768C107.406 93.5807 108.063 93.8164 108.711 94.0837C109.359 94.3511 109.994 94.6502 110.61 94.981C111.226 95.3118 111.829 95.6698 112.409 96.0595C112.994 96.4492 113.556 96.8661 114.095 97.3102C114.639 97.7543 115.155 98.2256 115.654 98.7195C116.148 99.2134 116.619 99.7346 117.063 100.274C117.507 100.818 117.924 101.38 118.314 101.96C118.699 102.544 119.061 103.142 119.392 103.759C119.723 104.379 120.022 105.009 120.29 105.657C120.557 106.305 120.793 106.962 120.996 107.633C121.2 108.304 121.368 108.983 121.504 109.672C121.64 110.356 121.744 111.05 121.812 111.748C121.88 112.446 121.916 113.143 121.916 113.841C121.916 114.544 121.88 115.241 121.812 115.939C121.744 116.637 121.64 117.331 121.504 118.015C121.368 118.704 121.2 119.383 120.996 120.054C120.793 120.725 120.557 121.382 120.29 122.03C120.022 122.678 119.723 123.308 119.392 123.924C119.061 124.545 118.699 125.143 118.314 125.727C117.924 126.307 117.507 126.869 117.063 127.413C116.619 127.952 116.148 128.474 115.654 128.968C115.155 129.461 114.639 129.933 114.095 130.377C113.556 130.821 112.994 131.238 112.409 131.628C111.829 132.017 111.226 132.375 110.61 132.706C109.994 133.037 109.359 133.336 108.711 133.603C108.063 133.871 107.406 134.106 106.736 134.31C106.065 134.514 105.385 134.686 104.701 134.822C104.012 134.958 103.319 135.062 102.626 135.13C101.928 135.198 101.23 135.23 100.528 135.23C99.8251 135.23 99.1273 135.198 98.4294 135.13C97.7361 135.062 97.0428 134.958 96.354 134.822C95.6697 134.686 94.99 134.514 94.3193 134.31C93.6486 134.106 92.9916 133.871 92.3436 133.603C91.6956 133.336 91.0611 133.037 90.4449 132.706C89.8286 132.375 89.2259 132.017 88.6458 131.628C88.0613 131.238 87.4994 130.821 86.9601 130.377C86.4163 129.933 85.8997 129.461 85.4013 128.968C84.9073 128.474 84.436 127.952 83.9919 127.413C83.5479 126.869 83.131 126.307 82.7412 125.727C82.3561 125.143 81.9935 124.545 81.6627 123.924C81.3319 123.308 81.0329 122.678 80.7655 122.03C80.4981 121.382 80.2625 120.725 80.0586 120.054C79.8547 119.383 79.687 118.704 79.551 118.015C79.4151 117.331 79.3109 116.637 79.2429 115.939C79.1749 115.241 79.1387 114.544 79.1387 113.841C79.1387 113.143 79.1749 112.446 79.2429 111.748C79.3154 111.05 79.4151 110.361 79.5556 109.672C79.6915 108.983 79.8637 108.308 80.0676 107.638C80.267 106.967 80.5072 106.31 80.7746 105.662C81.0419 105.014 81.341 104.384 81.6718 103.768C82.0026 103.147 82.3606 102.549 82.7503 101.969C83.14 101.384 83.5569 100.822 84.001 100.283C84.4451 99.7391 84.9164 99.2225 85.4103 98.7286C85.9043 98.2301 86.4254 97.7634 86.9646 97.3193C87.5084 96.8752 88.0703 96.4583 88.6504 96.0686C89.2349 95.6788 89.8331 95.3163 90.4494 94.9855C91.0657 94.6593 91.7001 94.3556 92.3481 94.0883C92.9916 93.8209 93.6532 93.5853 94.3193 93.3814C94.99 93.1774 95.6697 93.0052 96.3585 92.8693C97.0428 92.7333 97.7361 92.6291 98.4339 92.5611C99.1273 92.4886 99.8251 92.4569 100.528 92.4524ZM100.528 130.952C101.651 130.952 102.762 130.844 103.867 130.626C104.968 130.409 106.038 130.082 107.076 129.652C108.113 129.221 109.101 128.696 110.035 128.07C110.968 127.445 111.834 126.738 112.627 125.945C113.42 125.147 114.131 124.282 114.757 123.348C115.377 122.415 115.908 121.432 116.338 120.389C116.764 119.352 117.09 118.282 117.308 117.181C117.53 116.08 117.639 114.965 117.639 113.841C117.639 112.722 117.53 111.607 117.308 110.506C117.09 109.405 116.764 108.335 116.338 107.293C115.908 106.255 115.377 105.272 114.757 104.339C114.131 103.401 113.42 102.54 112.627 101.742C111.834 100.949 110.968 100.242 110.035 99.6167C109.101 98.9914 108.113 98.4657 107.076 98.0352C106.038 97.6047 104.968 97.2785 103.867 97.061C102.762 96.8435 101.651 96.7302 100.528 96.7302C99.4037 96.7302 98.2935 96.8435 97.1878 97.061C96.0866 97.2785 95.0172 97.6047 93.9795 98.0352C92.9417 98.4657 91.9539 98.9914 91.0204 99.6167C90.0869 100.242 89.2213 100.949 88.4283 101.742C87.6353 102.54 86.9239 103.401 86.2985 104.339C85.6777 105.272 85.1475 106.255 84.717 107.293C84.291 108.335 83.9648 109.405 83.7472 110.506C83.5252 111.607 83.4164 112.722 83.4164 113.841C83.4164 114.965 83.5252 116.08 83.7472 117.181C83.9648 118.282 84.291 119.352 84.717 120.389C85.1475 121.432 85.6777 122.415 86.2985 123.348C86.9239 124.282 87.6353 125.147 88.4283 125.945C89.2213 126.738 90.0869 127.445 91.0204 128.07C91.9539 128.696 92.9417 129.221 93.9795 129.652C95.0172 130.082 96.0866 130.409 97.1878 130.626C98.2935 130.844 99.4037 130.952 100.528 130.952Z" fill="#5551FF"/>
<path d="M53.4674 154C33.5875 154 27.2706 150.175 26.618 149.722C25.9791 149.296 25.6619 148.707 25.6619 147.941C25.612 146.378 25.6755 144.819 25.8612 143.26C26.0425 141.706 26.3416 140.174 26.7494 138.665C27.1618 137.151 27.6829 135.683 28.3173 134.247C28.9472 132.815 29.6813 131.437 30.5197 130.114C31.3535 128.791 32.287 127.54 33.3111 126.357C34.3352 125.17 35.4409 124.069 36.6282 123.049C37.82 122.034 39.0752 121.11 40.4029 120.276C41.7307 119.447 43.1128 118.722 44.5493 118.096C45.1157 117.879 45.6731 117.897 46.2214 118.155C48.5144 119.234 50.9297 119.768 53.4674 119.764C56.0141 119.773 58.4385 119.238 60.7405 118.155C61.2888 117.897 61.8462 117.879 62.4126 118.096C63.6678 118.627 64.8868 119.238 66.0605 119.927C67.2342 120.62 68.358 121.391 69.432 122.234C70.5014 123.072 71.5165 123.983 72.4681 124.962C73.4152 125.94 74.2988 126.978 75.11 128.07C75.9211 129.167 76.6598 130.313 77.3168 131.505C77.9784 132.701 78.5539 133.934 79.0479 135.203C79.5463 136.472 79.9542 137.772 80.2759 139.095C80.5977 140.423 80.8288 141.765 80.9692 143.119C81.0327 143.591 80.9511 144.03 80.72 144.443C79.782 146.147 79.0252 147.923 78.4407 149.776C78.2231 150.465 77.77 150.927 77.0857 151.158C69.364 153.356 61.4927 154.303 53.4674 154ZM29.9668 146.627C29.9668 146.64 29.9755 146.652 29.9884 146.657C37.6217 149.157 45.4496 150.179 53.4674 149.722C59.6345 149.924 65.7248 149.392 71.7354 148.124C73.5936 147.732 75.0462 146.346 75.8361 144.619C76.3159 143.57 76.5554 142.412 76.3358 141.28C76.027 139.687 75.5725 138.132 74.974 136.612C74.1538 134.546 73.0934 132.611 71.7838 130.807C70.4787 129.008 68.9697 127.395 67.2523 125.977C66.9124 125.695 66.5667 125.423 66.2151 125.16C63.5035 123.131 59.9045 123.356 56.552 123.836C55.5402 123.981 54.5137 124.052 53.4719 124.051C51.9074 124.053 50.3746 123.89 48.875 123.561C46.5321 123.045 44.0077 122.965 42.0116 124.295C40.9649 124.998 39.9724 125.768 39.0344 126.607C38.0919 127.445 37.2173 128.342 36.4016 129.303C35.5859 130.263 34.8428 131.274 34.1676 132.339C33.4969 133.404 32.8987 134.51 32.3821 135.656C31.861 136.802 31.4214 137.981 31.068 139.191C30.71 140.396 30.4426 141.624 30.2568 142.87C30.071 144.116 29.9759 145.367 29.9668 146.627Z" fill="#5551FF"/>
<path d="M53.4728 81.2776C54.1752 81.2776 54.8731 81.3093 55.5709 81.3818C56.2643 81.4498 56.9576 81.5495 57.6464 81.6854C58.3306 81.8259 59.0104 81.9936 59.681 82.1975C60.3517 82.4014 61.0088 82.637 61.6568 82.9044C62.3048 83.1718 62.9392 83.4709 63.5555 83.8017C64.1718 84.1325 64.7745 84.4904 65.3545 84.8802C65.9391 85.2699 66.501 85.6868 67.0402 86.1309C67.584 86.575 68.1006 87.0462 68.5991 87.5402C69.093 88.0386 69.5643 88.5552 70.0084 89.0945C70.4525 89.6383 70.8694 90.2002 71.2591 90.7847C71.6443 91.3648 72.0068 91.9629 72.3376 92.5838C72.6684 93.2001 72.9675 93.8345 73.2349 94.4825C73.5022 95.126 73.7379 95.7876 73.9418 96.4582C74.1457 97.1289 74.3134 97.8041 74.4493 98.4929C74.5853 99.1817 74.6895 99.8705 74.7575 100.568C74.8254 101.266 74.8617 101.964 74.8617 102.666C74.8617 103.364 74.8254 104.067 74.7575 104.76C74.6895 105.458 74.5853 106.151 74.4493 106.84C74.3134 107.524 74.1457 108.204 73.9418 108.875C73.7379 109.545 73.5022 110.202 73.2349 110.85C72.9675 111.498 72.6684 112.128 72.3376 112.749C72.0068 113.365 71.6443 113.968 71.2591 114.548C70.8694 115.133 70.4525 115.695 70.0084 116.234C69.5643 116.778 69.093 117.294 68.5991 117.788C68.1006 118.287 67.584 118.753 67.0402 119.197C66.501 119.642 65.9391 120.058 65.3545 120.448C64.7745 120.838 64.1718 121.2 63.5555 121.527C62.9392 121.857 62.3048 122.157 61.6568 122.428C61.0088 122.696 60.3517 122.931 59.681 123.135C59.0104 123.335 58.3306 123.507 57.6464 123.643C56.9576 123.779 56.2643 123.883 55.5709 123.951C54.8731 124.019 54.1752 124.055 53.4728 124.055C52.7704 124.055 52.0726 124.019 51.3747 123.951C50.6814 123.883 49.9881 123.779 49.2993 123.643C48.615 123.507 47.9353 123.335 47.2646 123.135C46.594 122.931 45.9369 122.696 45.2889 122.428C44.6409 122.157 44.0065 121.857 43.3902 121.527C42.7739 121.2 42.1712 120.838 41.5911 120.448C41.0066 120.058 40.4447 119.642 39.9054 119.197C39.3616 118.753 38.845 118.287 38.3466 117.788C37.8526 117.294 37.3813 116.778 36.9373 116.234C36.4932 115.695 36.0763 115.133 35.6866 114.548C35.3014 113.968 34.9389 113.365 34.608 112.749C34.2772 112.128 33.9782 111.498 33.7108 110.85C33.4434 110.202 33.2078 109.545 33.0039 108.875C32.8 108.204 32.6323 107.524 32.4964 106.84C32.3604 106.151 32.2562 105.458 32.1882 104.76C32.1202 104.067 32.084 103.364 32.084 102.666C32.084 101.964 32.1202 101.266 32.1882 100.568C32.2607 99.875 32.3604 99.1817 32.5009 98.4929C32.6368 97.8086 32.809 97.1289 33.0129 96.4582C33.2123 95.7876 33.4525 95.1305 33.7199 94.4825C33.9872 93.839 34.2863 93.2046 34.6171 92.5883C34.9479 91.972 35.3059 91.3693 35.6956 90.7893C36.0853 90.2047 36.5022 89.6428 36.9463 89.1035C37.3904 88.5643 37.8617 88.0432 38.3556 87.5492C38.8496 87.0553 39.3707 86.584 39.9099 86.1399C40.4537 85.6958 41.0156 85.2789 41.5957 84.8892C42.1802 84.4995 42.7784 84.1415 43.3947 83.8107C44.011 83.4799 44.6454 83.1808 45.2934 82.9135C45.9369 82.6416 46.5985 82.4059 47.2646 82.202C47.9353 81.9981 48.615 81.8304 49.3038 81.69C49.9881 81.554 50.6814 81.4498 51.3793 81.3818C52.0726 81.3138 52.7704 81.2776 53.4728 81.2776ZM53.4728 119.778C54.5967 119.778 55.7069 119.669 56.8126 119.447C57.9137 119.229 58.9832 118.903 60.0209 118.472C61.0586 118.042 62.0465 117.516 62.98 116.891C63.9135 116.27 64.779 115.559 65.572 114.766C66.365 113.973 67.0765 113.107 67.7019 112.174C68.3227 111.236 68.8529 110.252 69.2834 109.215C69.7093 108.177 70.0356 107.107 70.2531 106.002C70.4752 104.9 70.5839 103.79 70.5839 102.666C70.5839 101.543 70.4752 100.428 70.2531 99.3267C70.0356 98.2255 69.7093 97.1561 69.2834 96.1184C68.8529 95.0806 68.3227 94.0928 67.7019 93.1593C67.0765 92.2258 66.365 91.3603 65.572 90.5672C64.779 89.7697 63.9135 89.0628 62.98 88.4374C62.0465 87.8121 61.0586 87.2864 60.0209 86.8559C58.9832 86.4254 57.9137 86.1037 56.8126 85.8816C55.7069 85.6641 54.5967 85.5554 53.4728 85.5554C52.349 85.5554 51.2388 85.6641 50.1331 85.8816C49.0319 86.1037 47.9625 86.4254 46.9248 86.8559C45.887 87.2864 44.8992 87.8121 43.9657 88.4374C43.0322 89.0628 42.1667 89.7697 41.3736 90.5672C40.5806 91.3603 39.8692 92.2258 39.2438 93.1593C38.623 94.0928 38.0928 95.0806 37.6623 96.1184C37.2363 97.1561 36.9101 98.2255 36.6926 99.3267C36.4705 100.428 36.3618 101.543 36.3618 102.666C36.3618 103.79 36.4705 104.9 36.6926 106.002C36.9101 107.107 37.2363 108.177 37.6623 109.215C38.0928 110.252 38.623 111.236 39.2438 112.174C39.8692 113.107 40.5806 113.973 41.3736 114.766C42.1667 115.559 43.0322 116.27 43.9657 116.891C44.8992 117.516 45.887 118.042 46.9248 118.472C47.9625 118.903 49.0319 119.229 50.1331 119.447C51.2388 119.669 52.349 119.778 53.4728 119.778Z" fill="#5551FF"/>
<path d="M28.3408 24.0398C28.1051 22.5897 28.3 21.2076 28.9299 19.8799C29.6685 18.2485 30.7652 16.9072 32.2107 15.8468C33.9327 14.5644 35.8541 13.7442 37.9703 13.3816C39.9189 12.9602 41.8719 12.9602 43.8205 13.368C45.4745 13.7034 46.9246 14.4375 48.1708 15.5749C49.2946 16.6036 50.0015 17.8724 50.2915 19.3678C50.5227 20.4372 50.4637 21.4931 50.1193 22.5353C49.7931 23.4688 49.3399 24.3298 48.7463 25.1228C48.1708 25.8841 47.124 27.1847 45.6105 29.0245C45.257 29.4505 44.9262 29.8991 44.6226 30.3613C44.4141 30.674 44.2465 31.0093 44.1196 31.3628C44.029 31.6392 43.9655 31.9247 43.9338 32.2147C43.9021 32.4957 43.8704 32.9805 43.8386 33.6739C43.8613 33.9911 43.825 34.3037 43.7253 34.6073C43.6257 34.911 43.4716 35.1874 43.2631 35.4321C43.0592 35.6768 42.8145 35.8716 42.529 36.0167C42.2435 36.1662 41.9445 36.2523 41.6227 36.284C40.9022 36.4517 40.2179 36.3611 39.5699 35.9985C38.8811 35.5499 38.4869 34.92 38.3917 34.1043C38.1697 33.0893 38.1697 32.0697 38.3917 31.0546C38.6047 30.1619 38.9672 29.3326 39.4838 28.5713C40.1454 27.6243 40.8524 26.7134 41.6046 25.8343C42.3976 24.8963 42.9641 24.1939 43.3084 23.7271C43.6483 23.2694 43.9157 22.771 44.1151 22.2363C44.3099 21.7061 44.3462 21.1668 44.2374 20.614C44.1377 20.0792 43.9247 19.5989 43.603 19.1639C43.2767 18.7243 42.8734 18.3845 42.3931 18.1352C41.2602 17.5325 40.0684 17.383 38.8177 17.673C37.4537 17.8225 36.3344 18.4298 35.4689 19.4947C34.762 20.6276 34.3315 21.8556 34.1774 23.1833C34.1729 23.5232 34.114 23.8495 33.9961 24.1712C33.8783 24.4884 33.7107 24.7785 33.4931 25.0367C33.2711 25.295 33.0173 25.508 32.7228 25.6802C32.4282 25.8479 32.1156 25.9657 31.7802 26.0246C30.9781 26.2059 30.2259 26.0745 29.528 25.6349C28.8891 25.2815 28.4949 24.7513 28.3408 24.0398ZM43.4036 44.1462C42.5245 44.3366 41.6907 44.2187 40.8977 43.8064C40.508 43.5979 40.1862 43.317 39.9325 42.9544C39.6832 42.5964 39.5246 42.1977 39.4612 41.7626C39.2799 40.8971 39.4657 40.1177 40.014 39.4289C40.5759 38.6903 41.31 38.2462 42.2254 38.0966C43.1181 37.8972 43.9519 38.0332 44.7313 38.5135C45.4836 38.9576 45.9367 39.6102 46.0908 40.4757C46.3083 41.3729 46.1225 42.1795 45.5334 42.891C44.9761 43.5707 44.2646 43.9922 43.4036 44.1462Z" fill="#5551FF"/>
<path d="M55.6071 70.5701C55.6085 72.5045 53.2489 73.4508 51.9133 72.0514L41.3942 60.9191C39.1274 58.5202 35.9726 57.1608 32.6721 57.1608H19.25C18.6201 57.1608 17.9902 57.1336 17.3648 57.0702C16.735 57.0067 16.1141 56.9161 15.4933 56.7937C14.877 56.6714 14.2653 56.5173 13.6626 56.336C13.0599 56.1503 12.4663 55.9373 11.8817 55.6971C11.3016 55.4569 10.7307 55.185 10.1778 54.8905C9.62045 54.5914 9.0812 54.2697 8.55554 53.9207C8.02988 53.5673 7.52688 53.1912 7.03747 52.7924C6.5526 52.3936 6.08585 51.9722 5.63723 51.5236C5.19314 51.0795 4.77171 50.6127 4.3684 50.1233C3.96962 49.6384 3.59351 49.1309 3.24458 48.6098C2.89565 48.0841 2.56938 47.5449 2.27483 46.9875C1.97575 46.4301 1.70839 45.8637 1.46369 45.2791C1.22351 44.6991 1.01053 44.1054 0.829271 43.5027C0.64801 42.8955 0.493938 42.2883 0.371586 41.6675C0.244704 41.0512 0.154072 40.4258 0.0906307 39.8005C0.031721 39.1706 0 38.5452 0 37.9108V19.25C0 18.6201 0.031721 17.9902 0.0906307 17.3603C0.154072 16.735 0.244704 16.1096 0.371586 15.4933C0.493938 14.877 0.64801 14.2653 0.829271 13.6626C1.01053 13.0599 1.22351 12.4663 1.46369 11.8817C1.70839 11.3016 1.97575 10.7307 2.27483 10.1733C2.56938 9.62045 2.89565 9.07666 3.24458 8.55554C3.59351 8.02988 3.96962 7.52235 4.3684 7.03747C4.77171 6.54807 5.19314 6.08132 5.63723 5.63723C6.08585 5.19314 6.5526 4.76718 7.03747 4.3684C7.52688 3.96962 8.02988 3.59351 8.55554 3.24458C9.0812 2.89112 9.62045 2.56938 10.1733 2.2703C10.7307 1.97575 11.3016 1.70386 11.8817 1.46369C12.4663 1.22351 13.0599 1.01053 13.6626 0.829271C14.2653 0.643477 14.877 0.493937 15.4933 0.367054C16.1141 0.244703 16.735 0.154072 17.3648 0.0906307C17.9902 0.031721 18.6201 0 19.25 0H66.3054C68.5213 0 70.6738 0.371586 72.7629 1.11476C74.8519 1.86246 76.7551 2.9319 78.4771 4.33215C80.1629 5.70973 81.5767 7.33202 82.7141 9.18995C83.8561 11.0434 84.6581 13.0372 85.1249 15.167C85.3639 16.2707 84.703 17.372 83.6159 17.6775C82.841 17.8996 82.0842 18.1851 81.3547 18.5294C80.6205 18.8738 79.9227 19.2726 79.252 19.7303C78.5859 20.188 77.9605 20.6955 77.376 21.2574C76.7914 21.8148 76.2521 22.4175 75.7627 23.061C75.2779 23.7045 74.8428 24.3887 74.4667 25.1002C74.0861 25.8162 73.7689 26.5593 73.5106 27.3252C73.2523 28.091 73.0574 28.8749 72.926 29.6725C72.7901 30.47 72.7266 31.2721 72.7221 32.0833V50.6354C72.7221 51.7365 72.8444 52.8286 73.0801 53.9026C73.322 55.0105 72.6573 56.1165 71.5665 56.4267C69.8446 56.9161 68.0863 57.1608 66.2918 57.1608H60.9634C58.0005 57.1608 55.5991 59.5639 55.6013 62.5268L55.6071 70.5701ZM19.25 4.27777C18.2666 4.27777 17.2923 4.37293 16.3271 4.56326C15.3664 4.75811 14.4284 5.03907 13.5221 5.41518C12.6113 5.7913 11.7503 6.25352 10.9301 6.80183C10.1144 7.34562 9.35762 7.96644 8.6643 8.65976C7.96644 9.35762 7.34562 10.1144 6.80183 10.9301C6.25352 11.7503 5.79583 12.6113 5.41518 13.5176C5.03907 14.4284 4.75811 15.3619 4.56326 16.3271C4.37293 17.2923 4.27777 18.2666 4.27777 19.25V37.9154C4.27777 38.8987 4.37293 39.873 4.56779 40.8382C4.75811 41.8034 5.0436 42.7369 5.41972 43.6477C5.79583 44.5541 6.25352 45.4196 6.80183 46.2353C7.34562 47.0509 7.96644 47.8077 8.6643 48.5056C9.35762 49.1989 10.1144 49.8197 10.9301 50.368C11.7503 50.9118 12.6113 51.374 13.5221 51.7501C14.4284 52.1263 15.3664 52.4117 16.3271 52.6021C17.2923 52.7924 18.2666 52.8876 19.25 52.8876H37.2012C38.7852 52.8876 40.2994 53.5395 41.3879 54.6903L45.2813 58.8062C47.4614 61.1109 51.3378 59.568 51.3378 56.3955C51.3378 54.4581 52.9083 52.8876 54.8457 52.8876H66.31C66.3688 52.8879 66.4276 52.8879 66.4864 52.8875C67.6508 52.8794 68.4534 51.8089 68.4534 50.6444V32.0833C68.4534 31.1316 68.5259 30.1846 68.6709 29.2465C68.8114 28.3085 69.0198 27.3841 69.3008 26.4732C69.5772 25.5624 69.9216 24.6787 70.3294 23.8223C70.7373 22.9658 71.2085 22.1411 71.7387 21.3526C72.2689 20.5641 72.8535 19.8164 73.4924 19.114C74.1314 18.4116 74.8202 17.7591 75.5588 17.1564C76.2929 16.5582 77.0723 16.0099 77.888 15.525C79.2581 14.7106 80.0401 13.0495 79.2369 11.6727C78.3447 10.1433 77.1892 8.79959 75.7718 7.64017C74.435 6.5526 72.9532 5.7188 71.3264 5.14329C69.7041 4.56326 68.0274 4.27777 66.3054 4.27777H19.25Z" fill="#5551FF"/>
<path d="M100.532 165.175C80.1451 165.175 73.9097 161.073 73.6559 160.897C73.0351 160.475 72.7224 159.886 72.7224 159.134C72.6726 157.566 72.736 156.007 72.9218 154.453C73.1031 152.899 73.3976 151.367 73.81 149.853C74.2223 148.344 74.7435 146.872 75.3734 145.44C76.0078 144.008 76.7419 142.63 77.5757 141.307C78.414 139.984 79.3475 138.728 80.3716 137.546C81.3958 136.363 82.5015 135.262 83.6887 134.242C84.8805 133.223 86.1358 132.298 87.4635 131.469C88.7912 130.64 90.1734 129.91 91.6098 129.285C92.1763 129.067 92.7337 129.09 93.282 129.348C95.5795 130.427 97.9948 130.961 100.532 130.952C103.07 130.961 105.485 130.427 107.783 129.348C108.331 129.09 108.889 129.067 109.455 129.285C110.892 129.91 112.274 130.64 113.601 131.469C114.929 132.298 116.184 133.223 117.376 134.242C118.563 135.262 119.669 136.363 120.693 137.546C121.717 138.728 122.651 139.984 123.489 141.307C124.323 142.63 125.057 144.008 125.692 145.44C126.321 146.872 126.843 148.344 127.255 149.853C127.667 151.367 127.962 152.899 128.143 154.453C128.329 156.007 128.392 157.566 128.342 159.134C128.342 159.492 128.256 159.832 128.089 160.149C127.917 160.466 127.681 160.72 127.382 160.919C126.711 161.354 120.331 165.175 100.532 165.175ZM77.3219 154.059C76.9907 156.28 78.4763 158.31 80.6479 158.884C87.139 160.599 93.7681 161.271 100.532 160.897C107.297 161.271 113.926 160.599 120.417 158.884C122.589 158.31 124.074 156.28 123.743 154.059C123.562 152.812 123.29 151.584 122.936 150.375C122.578 149.169 122.143 147.991 121.622 146.844C121.106 145.693 120.507 144.588 119.837 143.523C119.162 142.462 118.418 141.447 117.603 140.487C116.792 139.526 115.912 138.629 114.974 137.786C114.036 136.948 113.039 136.182 111.993 135.479C109.998 134.15 107.478 134.226 105.137 134.741C103.635 135.072 102.101 135.235 100.532 135.23C98.965 135.235 97.432 135.072 95.932 134.742C93.5885 134.226 91.0642 134.148 89.0677 135.479C88.0209 136.182 87.0285 136.948 86.0904 137.786C85.1524 138.629 84.2733 139.526 83.4576 140.487C82.6465 141.447 81.9033 142.462 81.2281 143.523C80.5574 144.588 79.9593 145.693 79.4381 146.844C78.9215 147.991 78.4865 149.169 78.1285 150.375C77.7751 151.584 77.5032 152.812 77.3219 154.059Z" fill="#5551FF"/>
<path d="M102.667 40.6389C102.667 41.2053 102.558 41.7491 102.341 42.2747C102.123 42.8004 101.815 43.2626 101.416 43.6614C101.013 44.0647 100.551 44.3728 100.025 44.5904C99.5039 44.8079 98.9555 44.9166 98.3891 44.9166C97.8227 44.9166 97.2743 44.8079 96.7532 44.5904C96.2276 44.3728 95.7653 44.0647 95.362 43.6614C94.9633 43.2626 94.6551 42.8004 94.4376 42.2747C94.2201 41.7491 94.1113 41.2053 94.1113 40.6389C94.1113 40.0724 94.2201 39.5241 94.4376 39.003C94.6551 38.4773 94.9633 38.0151 95.362 37.6118C95.7653 37.213 96.2276 36.9049 96.7532 36.6874C97.2743 36.4698 97.8227 36.3611 98.3891 36.3611C98.9555 36.3611 99.5039 36.4698 100.025 36.6874C100.551 36.9049 101.013 37.213 101.416 37.6118C101.815 38.0151 102.123 38.4773 102.341 39.003C102.558 39.5241 102.667 40.0724 102.667 40.6389Z" fill="#5551FF"/>
<path d="M115.5 40.6389C115.5 41.2053 115.391 41.7491 115.174 42.2747C114.956 42.8004 114.648 43.2626 114.249 43.6614C113.846 44.0647 113.384 44.3728 112.858 44.5904C112.337 44.8079 111.789 44.9166 111.222 44.9166C110.656 44.9166 110.107 44.8079 109.586 44.5904C109.061 44.3728 108.598 44.0647 108.195 43.6614C107.796 43.2626 107.488 42.8004 107.271 42.2747C107.053 41.7491 106.944 41.2053 106.944 40.6389C106.944 40.0724 107.053 39.5241 107.271 39.003C107.488 38.4773 107.796 38.0151 108.195 37.6118C108.598 37.213 109.061 36.9049 109.586 36.6874C110.107 36.4698 110.656 36.3611 111.222 36.3611C111.789 36.3611 112.337 36.4698 112.858 36.6874C113.384 36.9049 113.846 37.213 114.249 37.6118C114.648 38.0151 114.956 38.4773 115.174 39.003C115.391 39.5241 115.5 40.0724 115.5 40.6389Z" fill="#5551FF"/>
<path d="M128.334 40.6389C128.334 41.2053 128.225 41.7491 128.008 42.2747C127.79 42.8004 127.482 43.2626 127.083 43.6614C126.68 44.0647 126.218 44.3728 125.692 44.5904C125.171 44.8079 124.623 44.9166 124.056 44.9166C123.49 44.9166 122.941 44.8079 122.42 44.5904C121.895 44.3728 121.432 44.0647 121.029 43.6614C120.63 43.2626 120.322 42.8004 120.105 42.2747C119.887 41.7491 119.778 41.2053 119.778 40.6389C119.778 40.0724 119.887 39.5241 120.105 39.003C120.322 38.4773 120.63 38.0151 121.029 37.6118C121.432 37.213 121.895 36.9049 122.42 36.6874C122.941 36.4698 123.49 36.3611 124.056 36.3611C124.623 36.3611 125.171 36.4698 125.692 36.6874C126.218 36.9049 126.68 37.213 127.083 37.6118C127.482 38.0151 127.79 38.4773 128.008 39.003C128.225 39.5241 128.334 40.0724 128.334 40.6389Z" fill="#5551FF"/>
<mask id="mask0_10_1134" style="mask-type:luminance" maskUnits="userSpaceOnUse" x="68" y="12" width="86" height="76">
<path d="M68.4443 24.149C68.4443 17.5216 73.8169 12.149 80.4443 12.149H142C148.627 12.149 154 17.5216 154 24.149V75.5537C154 82.1812 148.627 87.5537 142 87.5537H80.4443C73.8169 87.5537 68.4443 82.1812 68.4443 75.5537V24.149Z" fill="white"/>
</mask>
<g mask="url(#mask0_10_1134)">
<path d="M111.352 78.3795C108.223 81.6814 102.666 79.4668 102.666 74.9178C102.666 72.1384 100.413 69.8853 97.6339 69.8853H87.6943C87.0644 69.8853 86.4345 69.8536 85.8092 69.7901C85.1793 69.7267 84.5585 69.636 83.9422 69.5137C83.3214 69.3868 82.7096 69.2327 82.1069 69.0515C81.5042 68.8657 80.9151 68.6572 80.3306 68.4125C79.7505 68.1724 79.1795 67.905 78.6222 67.6059C78.0693 67.3068 77.5301 66.9851 77.0044 66.6362C76.4787 66.2827 75.9757 65.9066 75.4863 65.5078C75.0015 65.109 74.5347 64.6876 74.0906 64.239C73.642 63.7949 73.2206 63.3282 72.8218 62.8433C72.4185 62.3539 72.0469 61.8463 71.6934 61.3252C71.3445 60.7996 71.0228 60.2603 70.7237 59.7029C70.4246 59.1501 70.1573 58.5791 69.9171 57.9991C69.6724 57.4145 69.4594 56.8254 69.2781 56.2227C69.0923 55.6155 68.9428 55.0083 68.8159 54.3874C68.6936 53.7711 68.6029 53.1503 68.5395 52.5204C68.4761 51.8951 68.4443 51.2652 68.4443 50.6353V32.0832C68.4443 31.4533 68.4761 30.8234 68.5395 30.1981C68.6029 29.5682 68.6936 28.9474 68.8205 28.3266C68.9428 27.7103 69.0969 27.0985 69.2781 26.4958C69.4639 25.8931 69.6769 25.304 69.9171 24.7195C70.1573 24.1394 70.4291 23.5685 70.7237 23.0111C71.0228 22.4582 71.3445 21.919 71.698 21.3933C72.0469 20.8677 72.423 20.3647 72.8218 19.8753C73.2206 19.3904 73.6465 18.9236 74.0906 18.4795C74.5347 18.0309 75.0015 17.6095 75.4909 17.2107C75.9757 16.8119 76.4833 16.4358 77.0044 16.0824C77.5301 15.7334 78.0693 15.4117 78.6267 15.1126C79.1795 14.8135 79.7505 14.5462 80.3306 14.306C80.9151 14.0613 81.5042 13.8483 82.1114 13.6671C82.7141 13.4858 83.3214 13.3317 83.9422 13.2048C84.5585 13.0825 85.1793 12.9919 85.8092 12.9284C86.4345 12.865 87.0644 12.8333 87.6943 12.8333H134.75C135.38 12.8333 136.01 12.865 136.635 12.9284C137.265 12.9873 137.886 13.0825 138.502 13.2048C139.123 13.3272 139.734 13.4813 140.337 13.6671C140.94 13.8483 141.529 14.0613 142.114 14.3015C142.694 14.5462 143.265 14.8135 143.822 15.1126C144.375 15.4072 144.914 15.7334 145.44 16.0824C145.965 16.4313 146.468 16.8074 146.958 17.2062C147.443 17.6095 147.909 18.0309 148.353 18.475C148.802 18.9236 149.223 19.3904 149.622 19.8753C150.026 20.3647 150.397 20.8677 150.751 21.3933C151.1 21.9144 151.421 22.4582 151.72 23.0111C152.019 23.5685 152.287 24.1349 152.527 24.7195C152.772 25.2995 152.985 25.8931 153.166 26.4958C153.352 27.0985 153.501 27.7103 153.628 28.3266C153.75 28.9474 153.841 29.5682 153.905 30.1981C153.968 30.8234 154 31.4533 154 32.0832V50.6353C154 51.2652 153.968 51.8951 153.909 52.5204C153.846 53.1503 153.755 53.7711 153.628 54.392C153.506 55.0083 153.352 55.62 153.17 56.2227C152.989 56.8254 152.776 57.419 152.536 58.0036C152.291 58.5836 152.024 59.1546 151.725 59.7075C151.43 60.2648 151.104 60.8041 150.755 61.3297C150.406 61.8554 150.03 62.3584 149.631 62.8478C149.233 63.3327 148.807 63.7994 148.362 64.2481C147.914 64.6921 147.447 65.1136 146.962 65.5169C146.473 65.9157 145.97 66.2918 145.444 66.6407C144.919 66.9896 144.379 67.3159 143.826 67.6105C143.269 67.9095 142.698 68.1769 142.118 68.4216C141.533 68.6618 140.94 68.8747 140.337 69.056C139.734 69.2373 139.123 69.3913 138.506 69.5137C137.886 69.636 137.265 69.7312 136.635 69.7901C136.01 69.8536 135.38 69.8853 134.75 69.8853H122.961C120.689 69.8853 118.516 70.8196 116.953 72.4692L111.352 78.3795ZM87.6943 17.111C86.711 17.111 85.7367 17.2062 84.7715 17.3965C83.8108 17.5914 82.8727 17.8723 81.9664 18.2484C81.0556 18.6246 80.1946 19.0868 79.3744 19.6351C78.5587 20.1789 77.802 20.7997 77.1086 21.4975C76.4108 22.1909 75.79 22.9476 75.2462 23.7633C74.6979 24.5835 74.2402 25.4445 73.8595 26.3508C73.4834 27.2617 73.2024 28.1952 73.0076 29.1604C72.8173 30.1256 72.7221 31.0999 72.7221 32.0832V50.6353C72.7221 51.6187 72.8173 52.5929 73.0121 53.5582C73.2024 54.5188 73.4879 55.4569 73.8641 56.3632C74.2402 57.274 74.6979 58.135 75.2462 58.9552C75.79 59.7709 76.4108 60.5277 77.1086 61.221C77.802 61.9188 78.5587 62.5397 79.3744 63.0834C80.1946 63.6318 81.0556 64.0894 81.9664 64.4656C82.8727 64.8417 83.8108 65.1272 84.7715 65.3175C85.7367 65.5124 86.711 65.6075 87.6943 65.6075H103.752C105.515 65.6075 106.944 67.0369 106.944 68.8001C106.944 71.6858 110.469 73.0908 112.454 70.9964L116.008 67.2466C117 66.2002 118.378 65.6075 119.82 65.6075H134.75C135.733 65.6075 136.707 65.5124 137.673 65.3175C138.633 65.1272 139.571 64.8417 140.478 64.4656C141.388 64.0894 142.249 63.6318 143.07 63.0834C143.885 62.5397 144.642 61.9188 145.335 61.221C146.033 60.5277 146.654 59.7709 147.198 58.9552C147.746 58.135 148.208 57.274 148.585 56.3632C148.961 55.4569 149.242 54.5188 149.436 53.5582C149.627 52.5929 149.722 51.6187 149.722 50.6353V32.0832C149.722 31.0999 149.627 30.1256 149.436 29.1604C149.242 28.1952 148.961 27.2617 148.585 26.3508C148.208 25.4445 147.746 24.5835 147.198 23.7633C146.654 22.9476 146.033 22.1909 145.335 21.4975C144.642 20.7997 143.885 20.1789 143.07 19.6351C142.249 19.0868 141.388 18.6246 140.478 18.2484C139.571 17.8723 138.633 17.5914 137.673 17.3965C136.707 17.2062 135.733 17.111 134.75 17.111H87.6943Z" fill="#5551FF"/>
</g>
</svg>
