<svg width="161" height="165" viewBox="0 0 161 165" fill="none" xmlns="http://www.w3.org/2000/svg">
<path d="M58.4847 36.4669C58.4847 38.1018 58.6691 39.7157 59.0254 41.2249C59.2937 42.5118 59.7171 43.8156 60.2663 45.0858C61.876 48.8754 64.538 52.1284 67.9629 54.4886C69.7152 55.6917 70.7968 57.5614 71.0567 59.5945C70.0045 60.3617 69.3002 61.6864 69.3002 63.1913C69.3002 64.2603 69.6649 65.2287 70.2476 65.9791C69.6859 66.6749 69.3002 67.5259 69.3002 68.4859V68.9596C69.3002 69.9322 69.6901 70.7874 70.2644 71.4874C69.6901 72.1875 69.3002 73.0469 69.3002 74.0195V74.4932C69.3002 76.7233 71.1196 78.5385 73.3539 78.5385H87.3513C89.5856 78.5385 91.405 76.7233 91.405 74.4932V74.0195C91.405 73.0469 91.0151 72.1875 90.4408 71.4874C91.0151 70.7874 91.405 69.9322 91.405 68.9596V68.4859C91.405 67.5217 91.0193 66.6749 90.4534 65.9791C91.0319 65.2287 91.3966 64.2603 91.3966 63.1913C91.3966 61.6864 90.6965 60.3617 89.6485 59.5987C89.9084 57.5656 91.0026 55.6833 92.7758 54.4634C99.7472 49.6593 103.264 41.4261 101.956 32.9874C100.464 23.4127 92.3776 15.7203 82.7274 14.7016C76.4183 14.0351 70.3901 15.9886 65.7244 20.1932C61.1215 24.335 58.4805 30.2668 58.4805 36.4669H58.4847ZM88.3658 68.9638C88.3658 69.5172 87.913 69.9699 87.3513 69.9699H73.3539C72.7922 69.9699 72.3395 69.5172 72.3395 68.9638V68.4859C72.3395 67.9368 72.788 67.4924 73.3372 67.484H87.368C87.9172 67.4924 88.3658 67.9368 88.3658 68.4859V68.9638ZM87.5735 61.9379C87.9466 61.9379 88.3574 62.4745 88.3574 63.1913C88.3574 63.9082 87.9466 64.4406 87.5735 64.4406H87.3806C87.3806 64.4406 87.3639 64.4364 87.3513 64.4364H73.3498C73.3498 64.4364 73.3288 64.4406 73.3204 64.4406H73.1276C72.7503 64.4406 72.3311 63.904 72.3311 63.1913C72.3311 62.4787 72.7503 61.9379 73.1276 61.9379H87.5735ZM88.3658 74.4932C88.3658 75.0507 87.913 75.5034 87.3513 75.5034H73.3539C72.7922 75.5034 72.3395 75.0507 72.3395 74.4932V74.0195C72.3395 73.4619 72.7922 73.0092 73.3539 73.0092H87.3513C87.913 73.0092 88.3658 73.4619 88.3658 74.0195V74.4932ZM82.4088 17.7241C90.7091 18.6002 97.668 25.2153 98.9549 33.4528C100.083 40.7302 97.0517 47.8232 91.0445 51.965C88.6508 53.6166 87.1375 56.1445 86.6973 58.9028H74.0079C73.5677 56.1361 72.0628 53.6166 69.6817 51.9859C66.7347 49.957 64.4416 47.1608 63.054 43.8868C62.5761 42.7969 62.224 41.6902 61.985 40.5667C61.6748 39.2504 61.5197 37.867 61.5197 36.4669C61.5197 31.1262 63.7918 26.0202 67.7617 22.4486C71.7777 18.8308 77.0052 17.1749 82.4046 17.7241H82.4088Z" fill="#5551FF"/>
<mask id="mask0_26_2171" style="mask-type:luminance" maskUnits="userSpaceOnUse" x="78" y="0" width="5" height="10">
<path d="M78.3398 0H82.6325V9.41959H78.3398V0Z" fill="white"/>
</mask>
<g mask="url(#mask0_26_2171)">
<path d="M81.8693 6.99237V1.55525C81.8693 0.716836 81.1902 0.0377197 80.3476 0.0377197C79.5092 0.0377197 78.8301 0.716836 78.8301 1.55525V6.99237C78.8301 7.83078 79.5092 8.5099 80.3476 8.5099C81.1902 8.5099 81.8693 7.83078 81.8693 6.99237Z" fill="#5551FF"/>
</g>
<path d="M104.953 10.2287C104.358 9.63757 103.393 9.63757 102.802 10.2287L98.9582 14.0728C98.3629 14.6639 98.3629 15.628 98.9582 16.2191C99.2558 16.5168 99.6415 16.6635 100.031 16.6635C100.421 16.6635 100.811 16.5126 101.109 16.2191L104.953 12.375C105.548 11.7839 105.548 10.8197 104.953 10.2287Z" fill="#5551FF"/>
<path d="M113.617 36.3453C114.459 36.3453 115.138 35.662 115.138 34.8236C115.138 33.9851 114.459 33.306 113.617 33.306H108.18C107.341 33.306 106.662 33.9851 106.662 34.8236C106.662 35.662 107.341 36.3453 108.18 36.3453H113.617Z" fill="#5551FF"/>
<path d="M101.105 53.428C100.513 52.8369 99.5493 52.8369 98.9582 53.428C98.3629 54.0233 98.3629 54.9833 98.9582 55.5785L102.802 59.4227C103.1 59.7203 103.49 59.8628 103.88 59.8628C104.27 59.8628 104.655 59.7161 104.953 59.4227C105.548 58.8274 105.548 57.8632 104.953 57.2721L101.109 53.428H101.105Z" fill="#5551FF"/>
<path d="M55.7497 59.4227C56.0473 59.7203 56.4372 59.8628 56.827 59.8628C57.2169 59.8628 57.6068 59.7161 57.9044 59.4227L61.7485 55.5785C62.3396 54.9833 62.3396 54.0233 61.7485 53.428C61.1574 52.8369 60.1933 52.8369 59.6022 53.428L55.7539 57.2721C55.1628 57.8632 55.1628 58.8274 55.7539 59.4227H55.7497Z" fill="#5551FF"/>
<path d="M52.5233 36.3453C53.3617 36.3453 54.0408 35.662 54.0408 34.8236C54.0408 33.9851 53.3617 33.306 52.5233 33.306H47.082C46.2436 33.306 45.5645 33.9851 45.5645 34.8236C45.5645 35.662 46.2436 36.3453 47.082 36.3453H52.5233Z" fill="#5551FF"/>
<path d="M57.9005 10.2287C57.3052 9.63757 56.3452 9.63757 55.75 10.2287C55.1589 10.8197 55.1589 11.7839 55.75 12.375L59.5983 16.2191C59.8959 16.5168 60.2858 16.6635 60.6756 16.6635C61.0613 16.6635 61.4512 16.5126 61.7488 16.2191C62.3399 15.628 62.3399 14.6639 61.7488 14.0728L57.9047 10.2287H57.9005Z" fill="#5551FF"/>
<path d="M83.4557 23.7775C83.8623 23.8865 93.4915 26.6113 92.477 37.2885C92.4015 38.1227 93.0136 38.8647 93.8478 38.9444C93.8981 38.9444 93.9442 38.9528 93.9945 38.9528C94.7701 38.9528 95.4324 38.3617 95.5037 37.5736C96.7655 24.2973 84.3611 20.8724 84.2312 20.8388C83.4347 20.6208 82.5963 21.1071 82.3825 21.912C82.1645 22.7211 82.6466 23.5553 83.4557 23.7733V23.7775Z" fill="#5551FF"/>
<mask id="mask1_26_2171" style="mask-type:luminance" maskUnits="userSpaceOnUse" x="0" y="81" width="161" height="84">
<path d="M0 81.3221H160.976V165H0V81.3221Z" fill="white"/>
</mask>
<g mask="url(#mask1_26_2171)">
<path d="M160.368 147.268C160.368 147.247 160.36 147.226 160.356 147.205C160.351 147.163 160.356 147.125 160.347 147.087C159.458 139.495 155.987 132.34 150.575 126.932C146.17 122.501 140.749 119.478 134.834 117.986C141.189 114.863 145.583 108.34 145.583 100.794C145.583 90.2302 136.985 81.6323 126.417 81.6323C126.375 81.6323 126.328 81.6365 126.287 81.6365C126.287 81.6365 126.282 81.6365 126.278 81.6365C126.278 81.6365 126.278 81.6365 126.274 81.6365C115.773 81.7161 107.255 90.2763 107.255 100.794C107.255 108.332 111.644 114.85 117.99 117.978C111.015 119.738 104.781 123.696 100.074 129.405C96.6947 127.003 92.8632 125.217 88.7298 124.169C95.1017 121.05 99.5118 114.519 99.5118 106.957C99.5118 96.3884 90.9181 87.7946 80.3498 87.7946C69.7816 87.7946 61.1837 96.3884 61.1837 106.957C61.1837 114.519 65.5938 121.05 71.9699 124.169C67.8407 125.217 64.0091 126.999 60.6303 129.397C59.9344 128.563 59.2469 127.72 58.4714 126.919C54.0446 122.492 48.6117 119.47 42.7008 117.978C49.056 114.854 53.4535 108.336 53.4535 100.786C53.4535 90.2177 44.8556 81.6239 34.2873 81.6239C23.7191 81.6239 15.1254 90.2177 15.1254 100.786C15.1254 108.336 19.5229 114.859 25.878 117.978C12.4383 121.394 2.02934 132.755 0.352515 147.083C0.189024 148.483 0.109375 149.833 0.109375 151.091V156.943C0.109375 157.781 0.788491 158.465 1.62691 158.465H15.2679C15.2847 158.465 15.2931 158.473 15.314 158.473C15.3308 158.473 15.3392 158.465 15.3601 158.465H46.1803V163.114C46.1803 163.952 46.8636 164.631 47.702 164.631H61.3304C61.3472 164.631 61.3598 164.64 61.3765 164.64C61.3933 164.64 61.4059 164.631 61.4226 164.631H99.3022C99.319 164.631 99.3316 164.64 99.3483 164.64C99.3651 164.64 99.3777 164.631 99.3944 164.631H113.01C113.849 164.631 114.528 163.952 114.528 163.114V158.465H145.377C145.39 158.465 145.402 158.473 145.419 158.473C145.44 158.473 145.449 158.465 145.465 158.465H159.081C159.92 158.465 160.603 157.781 160.603 156.943V151.091C160.603 149.904 160.515 148.622 160.368 147.297C160.368 147.284 160.377 147.272 160.377 147.259L160.368 147.268ZM124.886 84.8266C124.618 88.1468 122.627 95.8811 110.491 98.8449C111.405 91.3914 117.374 85.5477 124.886 84.8266ZM110.415 101.972C125.125 98.715 127.548 88.893 127.892 84.8183C136.083 85.577 142.548 92.4059 142.548 100.794C142.548 109.66 135.354 116.867 126.505 116.913C126.479 116.913 126.454 116.909 126.429 116.909C126.404 116.909 126.375 116.917 126.349 116.917C117.894 116.875 111.027 110.285 110.415 101.976V101.972ZM126.316 119.952C126.354 119.952 126.387 119.956 126.425 119.956C126.467 119.956 126.505 119.952 126.551 119.952C134.83 119.981 142.598 123.213 148.429 129.074C152.957 133.601 155.966 139.47 157.061 145.75H146.937V140.481C146.937 139.638 146.258 138.959 145.419 138.959C144.581 138.959 143.897 139.638 143.897 140.481V155.434H114.436C114.398 154.776 114.377 154.113 114.306 153.463C114.306 153.451 114.306 153.447 114.306 153.443C114.306 153.384 114.28 153.338 114.272 153.279C113.249 144.497 108.881 136.725 102.48 131.266C108.42 124.106 117.001 119.986 126.316 119.952ZM78.8072 90.9932C78.5137 94.3217 76.4764 102.06 64.4242 105.011C65.338 97.558 71.2992 91.7226 78.8072 90.9932ZM64.3487 108.139C79.0545 104.882 81.4775 95.0595 81.8213 90.989C90.0126 91.7436 96.4767 98.5766 96.4767 106.965C96.4767 115.856 89.2412 123.092 80.3498 123.092C71.8651 123.092 64.9607 116.477 64.3487 108.143V108.139ZM110.994 151.917H100.866V146.647C100.866 145.809 100.183 145.125 99.3441 145.125C98.5057 145.125 97.8266 145.809 97.8266 146.647V161.6H62.8941V146.647C62.8941 145.809 62.2149 145.125 61.3765 145.125C60.5381 145.125 59.859 145.809 59.859 146.647V151.917H49.71C52.2546 137.29 65.011 126.127 80.3498 126.127C95.6928 126.127 108.449 137.295 110.994 151.917ZM32.7447 84.8266C32.4512 88.151 30.4139 95.8937 18.3659 98.8407C19.2797 91.3914 25.2409 85.5561 32.7447 84.8266ZM18.2862 101.972C32.992 98.715 35.415 88.893 35.7588 84.8183C43.9501 85.577 50.4142 92.4059 50.4142 100.794C50.4142 109.656 43.2248 116.867 34.3754 116.913C34.3502 116.913 34.3251 116.909 34.3041 116.909C34.2748 116.909 34.2454 116.913 34.2161 116.913C25.7649 116.871 18.9024 110.281 18.2862 101.976V101.972ZM34.1742 119.952C34.2161 119.952 34.2538 119.956 34.2915 119.956C34.3335 119.956 34.3754 119.952 34.4173 119.952C42.6883 119.981 50.4646 123.213 56.3125 129.061C57 129.766 57.6078 130.52 58.2325 131.262C51.3072 137.165 46.7881 145.771 46.2725 155.434H16.8316V140.481C16.8316 139.638 16.1524 138.959 15.314 138.959C14.4756 138.959 13.7923 139.638 13.7923 140.481V145.75H3.65168C6.20884 130.973 19.0114 120.011 34.1742 119.952ZM3.14863 151.099C3.14863 150.378 3.23247 149.573 3.29116 148.789H13.7965V155.434H3.14863V151.099ZM49.2195 157.257C49.2195 156.482 49.2824 155.719 49.3369 154.956H59.859V161.6H49.2195V157.257ZM111.484 161.6H100.866V154.956H111.367C111.421 155.719 111.484 156.478 111.484 157.257V161.6ZM157.555 155.434H146.933V148.789H157.413C157.471 149.573 157.555 150.378 157.555 151.099V155.434Z" fill="#5551FF"/>
</g>
</svg>
