<svg width="139" height="175" viewBox="0 0 139 175" fill="none" xmlns="http://www.w3.org/2000/svg">
<mask id="mask0_26_2145" style="mask-type:luminance" maskUnits="userSpaceOnUse" x="0" y="0" width="139" height="175">
<path d="M0.303711 0.90564H138.073V174.673H0.303711V0.90564Z" fill="white"/>
</mask>
<g mask="url(#mask0_26_2145)">
<path d="M138.688 23.5154V0.870178H-0.667969V129.91H1.38747V23.5154H136.613V172.475H1.38747V141.589H-0.667969V174.527H138.688V23.5154ZM1.38747 2.92167H136.613V21.46H1.38747V2.92167Z" fill="#5551FF"/>
</g>
<path d="M74.5479 11.1631H102.351V13.2186H74.5479V11.1631Z" fill="#5551FF"/>
<path d="M35.085 11.1631H62.8885V13.2186H35.085V11.1631Z" fill="#5551FF"/>
<path d="M67.9834 40.5613H70.0388V137.037H67.9834V40.5613Z" fill="#5551FF"/>
<path d="M59.5135 71.8457H38.5654V92.1244H59.5135V71.8457ZM57.4581 90.069H40.6406V73.9011H57.4581V90.069Z" fill="#5551FF"/>
<path d="M10.5928 92.1244H21.0786L27.997 101.307L29.6311 100.071L23.6578 92.1441H31.5409V71.8693H10.5928V92.1244ZM12.6482 73.9011H29.4658V90.069H22.0827L21.7677 89.6476L21.2243 90.069H12.6482V73.9011Z" fill="#5551FF"/>
<path d="M81.6123 147.334H111.641V118.29H81.6123V147.334ZM83.6677 120.345H109.565V145.278H83.6677V120.345Z" fill="#5551FF"/>
<path d="M45.5272 108.143H24.5791V128.417H32.9859L27.0125 136.344L28.6467 137.584L35.565 128.417H45.5272V108.143ZM43.4718 126.366H35.3997L34.8523 125.945L34.5373 126.366H26.6542V110.198H43.4718V126.366Z" fill="#5551FF"/>
<path d="M17.7246 165.029H38.6688V144.755H17.7246V165.029ZM19.7761 146.81H36.5937V162.974H19.7761V146.81Z" fill="#5551FF"/>
<path d="M16.2754 57.5049H26.1312L20.1539 65.451L21.792 66.6874L28.7104 57.5049H41.6691L48.5874 66.6874L50.2216 65.451L44.2482 57.5049H53.8284V35.1944H16.2754V57.5049ZM18.3308 37.2498H51.7769V55.4495H42.6968L42.3818 55.0282L41.8344 55.4495H28.5411L27.9977 55.0282L27.6827 55.4495H18.3505V37.2498H18.3308Z" fill="#5551FF"/>
<path d="M27.4297 45.3219H42.6958V47.3773H27.4297V45.3219Z" fill="#5551FF"/>
<path d="M122.776 35.1944H85.2188V57.5049H102.686V68.5342H104.741V57.5049H122.752V35.1944H122.776ZM120.72 55.4495H87.2939V37.2498H120.74V55.4495H120.72Z" fill="#5551FF"/>
<path d="M96.3545 45.3219H111.621V47.3773H96.3545V45.3219Z" fill="#5551FF"/>
<path d="M96.7721 112.631L104.218 103.382H118.728V74.3224H88.7197V103.362H101.576L95.1814 111.328L96.7721 112.631ZM90.7752 101.307V76.3739H116.673V101.307H104.092L103.568 100.89L103.23 101.307H90.7752Z" fill="#5551FF"/>
<mask id="mask1_26_2145" style="mask-type:luminance" maskUnits="userSpaceOnUse" x="0" y="0" width="139" height="175">
<path d="M0 0H138.837V174.635H0V0Z" fill="white"/>
</mask>
<g mask="url(#mask1_26_2145)">
<path d="M0 0V174.635H138.837V0H0Z" stroke="#5551FF" stroke-width="6.01583"/>
</g>
</svg>
