<svg width="182" height="166" viewBox="0 0 182 166" fill="none" xmlns="http://www.w3.org/2000/svg">
<path d="M44.2557 50.5913H9.59772C8.96442 50.5913 8.34449 50.6537 7.72456 50.7786C7.10463 50.9035 6.507 51.0864 5.92722 51.3272C5.34297 51.568 4.78994 51.8624 4.26813 52.2147C3.74186 52.5626 3.26019 52.964 2.8142 53.41C2.36821 53.8515 1.97128 54.3376 1.61895 54.8639C1.27107 55.3857 0.972259 55.9387 0.731425 56.523C0.490589 57.1028 0.307734 57.7049 0.182856 58.3203C0.0624384 58.9403 0 59.5646 0 60.1935V85.5837C0 86.2126 0.0624387 86.837 0.187316 87.4569C0.307734 88.0724 0.490589 88.6745 0.731425 89.2542C0.972259 89.8385 1.27107 90.3871 1.61895 90.9133C1.97128 91.4351 2.36821 91.9213 2.8142 92.3673C3.26019 92.8133 3.74186 93.2102 4.26813 93.5581C4.78994 93.9104 5.34297 94.2047 5.92722 94.4456C6.507 94.6909 7.10909 94.8693 7.72456 94.9941C8.34449 95.119 8.96442 95.1815 9.59772 95.1815H44.2557C44.8845 95.1815 45.5089 95.119 46.1288 94.9941C46.7443 94.8737 47.3464 94.6909 47.9262 94.45C48.5104 94.2047 49.0634 93.9104 49.5853 93.5625C50.1115 93.2102 50.5932 92.8133 51.0392 92.3673C51.4852 91.9213 51.8821 91.4351 52.2344 90.9133C52.5823 90.3915 52.8811 89.8385 53.122 89.2542C53.3628 88.6745 53.5457 88.0724 53.6705 87.4569C53.7909 86.837 53.8534 86.2126 53.8578 85.5837V60.1935C53.8534 59.5646 53.7909 58.9403 53.6705 58.3203C53.5457 57.7004 53.3628 57.1028 53.122 56.5185C52.8811 55.9387 52.5868 55.3857 52.2344 54.8594C51.8821 54.3376 51.4852 53.8515 51.0392 53.4055C50.5932 52.9595 50.1115 52.5626 49.5853 52.2147C49.0634 51.8624 48.5104 51.568 47.9262 51.3272C47.3464 51.0819 46.7443 50.9035 46.1288 50.7786C45.5089 50.6537 44.8845 50.5913 44.2557 50.5913ZM47.3553 85.5837C47.3553 85.9941 47.275 86.391 47.1189 86.7701C46.9628 87.1492 46.7354 87.4837 46.4455 87.7736C46.1556 88.0635 45.8211 88.2864 45.442 88.447C45.0629 88.6031 44.666 88.6789 44.2557 88.6834H9.59772C9.18741 88.6789 8.79048 88.6031 8.41139 88.4425C8.03229 88.2864 7.6978 88.0635 7.40791 87.7736C7.11801 87.4837 6.89502 87.1492 6.73446 86.7701C6.57836 86.391 6.49809 85.9941 6.49809 85.5837V60.1935C6.49809 59.7832 6.57836 59.3862 6.73446 59.0072C6.89056 58.6281 7.11801 58.2936 7.40791 58.0037C7.6978 57.7093 8.03229 57.4863 8.41139 57.3302C8.79048 57.1697 9.18741 57.0939 9.59772 57.0939H44.2557C44.666 57.0939 45.0629 57.1697 45.442 57.3302C45.8211 57.4863 46.1556 57.7093 46.4455 57.9992C46.7354 58.2936 46.9628 58.6281 47.1189 59.0072C47.275 59.3862 47.3553 59.7832 47.3553 60.1935V85.5837Z" fill="#5551FF"/>
<path d="M117.924 85.5837V60.1935C117.924 59.5646 117.861 58.9403 117.741 58.3203C117.616 57.7049 117.433 57.1028 117.192 56.523C116.951 55.9387 116.657 55.3857 116.305 54.8639C115.957 54.3376 115.555 53.8515 115.109 53.41C114.668 52.964 114.182 52.5626 113.66 52.2147C113.134 51.8624 112.581 51.568 112.001 51.3272C111.417 51.0864 110.819 50.9035 110.199 50.7786C109.584 50.6537 108.959 50.5913 108.326 50.5913H73.668C73.0392 50.5913 72.4148 50.6537 71.7993 50.7786C71.1794 50.9035 70.5818 51.0864 69.9975 51.3272C69.4177 51.568 68.8647 51.8624 68.3384 52.2147C67.8166 52.5626 67.3305 52.964 66.8845 53.41C66.4385 53.8515 66.0416 54.3376 65.6937 54.8639C65.3414 55.3857 65.047 55.9387 64.8062 56.523C64.5654 57.1028 64.3825 57.7049 64.2576 58.3203C64.1328 58.9403 64.0703 59.5646 64.0703 60.1935V85.5837C64.0748 86.2126 64.1328 86.837 64.2576 87.4569C64.3825 88.0724 64.5654 88.6745 64.8062 89.2542C65.047 89.8385 65.3414 90.3871 65.6937 90.9133C66.0416 91.4351 66.443 91.9213 66.8845 92.3673C67.3305 92.8133 67.8166 93.2102 68.3384 93.5581C68.8647 93.9104 69.4177 94.2047 69.9975 94.4456C70.5818 94.6909 71.1794 94.8693 71.7993 94.9942C72.4148 95.119 73.0392 95.1815 73.668 95.1815H108.326C108.959 95.1815 109.584 95.119 110.199 94.9942C110.819 94.8693 111.417 94.6909 112.001 94.4456C112.581 94.2047 113.134 93.9104 113.656 93.5581C114.182 93.2102 114.664 92.8133 115.109 92.3673C115.555 91.9213 115.952 91.4351 116.305 90.9133C116.653 90.3871 116.951 89.8385 117.192 89.2542C117.433 88.6745 117.616 88.0724 117.741 87.4569C117.861 86.837 117.924 86.2126 117.924 85.5837ZM70.5729 85.5837V60.1935C70.5729 59.7832 70.6487 59.3862 70.8092 59.0072C70.9653 58.6281 71.1883 58.2936 71.4782 58.0037C71.7681 57.7093 72.1026 57.4863 72.4862 57.3302C72.8652 57.1697 73.2577 57.0939 73.668 57.0939H108.326C108.741 57.0939 109.133 57.1697 109.512 57.3302C109.891 57.4863 110.226 57.7093 110.516 58.0037C110.81 58.2936 111.033 58.6281 111.189 59.0072C111.345 59.3862 111.426 59.7832 111.426 60.1935V85.5837C111.426 85.9941 111.345 86.391 111.189 86.7701C111.033 87.1492 110.806 87.4837 110.516 87.7736C110.226 88.0635 109.891 88.2864 109.512 88.4425C109.133 88.6031 108.736 88.6789 108.326 88.6834H73.668C73.2577 88.6789 72.8652 88.6031 72.4862 88.4425C72.1071 88.2864 71.7726 88.0635 71.4782 87.7736C71.1883 87.4837 70.9653 87.1492 70.8092 86.7701C70.6531 86.391 70.5729 85.9941 70.5729 85.5837Z" fill="#5551FF"/>
<path d="M172.403 50.5913H137.745C137.116 50.5913 136.492 50.6537 135.872 50.7786C135.256 50.9035 134.654 51.0819 134.07 51.3272C133.49 51.568 132.937 51.8624 132.411 52.2147C131.889 52.5626 131.403 52.9595 130.957 53.4055C130.511 53.8515 130.114 54.3376 129.766 54.8594C129.414 55.3857 129.119 55.9387 128.878 56.5185C128.638 57.1028 128.455 57.7004 128.33 58.3203C128.205 58.9403 128.143 59.5646 128.143 60.1935V85.5837C128.143 86.2126 128.205 86.837 128.33 87.4569C128.455 88.0724 128.638 88.6745 128.878 89.2542C129.119 89.8385 129.414 90.3915 129.766 90.9133C130.114 91.4351 130.515 91.9213 130.961 92.3673C131.407 92.8133 131.889 93.2102 132.415 93.5625C132.937 93.9104 133.49 94.2047 134.074 94.45C134.654 94.6909 135.256 94.8737 135.872 94.9942C136.492 95.119 137.116 95.1815 137.745 95.1815H172.403C173.032 95.1815 173.656 95.119 174.276 94.9942C174.891 94.8693 175.493 94.6909 176.073 94.4456C176.657 94.2047 177.21 93.9104 177.732 93.5581C178.254 93.2102 178.74 92.8133 179.186 92.3673C179.632 91.9213 180.029 91.4351 180.377 90.9133C180.729 90.3871 181.024 89.8385 181.265 89.2542C181.51 88.6745 181.688 88.0724 181.813 87.4569C181.938 86.837 182 86.2126 182 85.5837V60.1935C182 59.5646 181.938 58.9403 181.813 58.3203C181.693 57.7049 181.51 57.1028 181.269 56.523C181.024 55.9387 180.729 55.3857 180.381 54.8639C180.029 54.3376 179.632 53.8515 179.186 53.41C178.74 52.964 178.259 52.5626 177.732 52.2147C177.21 51.8624 176.657 51.568 176.073 51.3272C175.493 51.0864 174.891 50.9035 174.276 50.7786C173.656 50.6537 173.032 50.5913 172.403 50.5913ZM175.502 85.5837C175.498 85.9941 175.422 86.391 175.262 86.7701C175.105 87.1492 174.882 87.4837 174.593 87.7736C174.303 88.0635 173.968 88.2864 173.589 88.4425C173.21 88.6031 172.813 88.6789 172.403 88.6834H137.745C137.334 88.6789 136.938 88.6031 136.558 88.447C136.179 88.2864 135.845 88.0635 135.555 87.7736C135.261 87.4837 135.038 87.1492 134.881 86.7701C134.725 86.391 134.645 85.9941 134.645 85.5837V60.1935C134.645 59.7832 134.721 59.3862 134.881 59.0072C135.038 58.6281 135.261 58.2936 135.55 57.9992C135.845 57.7093 136.179 57.4863 136.558 57.3302C136.938 57.1697 137.334 57.0939 137.745 57.0939H172.403C172.813 57.0939 173.21 57.1697 173.589 57.3302C173.968 57.4863 174.303 57.7093 174.593 58.0037C174.882 58.2936 175.105 58.6281 175.266 59.0072C175.422 59.3862 175.502 59.7832 175.502 60.1935V85.5837Z" fill="#5551FF"/>
<path d="M89.97 26.2038C90.6284 27.8597 88.7713 29.1664 87.3337 28.1133C86.9859 27.868 86.6023 27.6985 86.1876 27.6049C85.7728 27.5068 85.358 27.4934 84.9388 27.5647C84.5195 27.6316 84.1271 27.7788 83.7658 28.0018C83.4001 28.2248 83.0968 28.5058 82.8426 28.8492C82.5929 29.1926 82.4145 29.5717 82.3119 29.9865C82.2093 30.3968 82.187 30.816 82.2495 31.2352C82.3074 31.6545 82.4457 32.0514 82.6642 32.4171C82.8783 32.7828 83.1548 33.095 83.4938 33.3537L93.7337 40.8597C94.0816 41.1139 94.4607 41.2923 94.8799 41.3949C95.2991 41.4975 95.7228 41.5153 96.1465 41.4484C96.5747 41.386 96.9716 41.2388 97.3373 41.0158C97.7075 40.7928 98.0197 40.5074 98.2739 40.1595L105.78 29.9196C106.034 29.5717 106.213 29.1881 106.315 28.7734C106.418 28.3541 106.436 27.9304 106.369 27.5023C106.306 27.0786 106.159 26.6817 105.936 26.3115C105.713 25.9458 105.428 25.6336 105.08 25.3794C102.854 23.8498 101.23 25.1773 99.8932 26.8982C99.0388 27.9981 97.3914 27.696 96.9671 26.3695C96.6148 25.2679 96.209 24.1841 95.7585 23.1227C95.3081 22.0567 94.8041 21.0131 94.26 19.9963C93.7114 18.975 93.1182 17.9849 92.4805 17.0215C91.8427 16.0537 91.1603 15.1216 90.4378 14.2207C89.7153 13.3153 88.9527 12.4501 88.1499 11.6161C87.3471 10.7821 86.5087 9.98824 85.6345 9.23452C84.7559 8.47633 83.8506 7.76275 82.9095 7.0893C81.9685 6.41585 81.0007 5.78701 80.0017 5.20276C79.0026 4.61851 77.9813 4.08332 76.9332 3.59273C75.8852 3.09768 74.8192 2.65615 73.731 2.26368C72.6428 1.87121 71.5412 1.5278 70.4218 1.23344C69.3023 0.943548 68.174 0.702714 67.0322 0.510938C65.8905 0.323623 64.7443 0.185365 63.5892 0.100627C62.4341 0.015888 61.2834 -0.0153307 60.1239 0.00696852C58.9687 0.0292678 57.8136 0.100627 56.6674 0.229964C55.5168 0.354842 54.375 0.533239 53.2422 0.765153C52.1094 0.997069 50.99 1.27804 49.8794 1.61254C48.7734 1.94257 47.6807 2.32612 46.6103 2.75873C45.54 3.19134 44.4874 3.67301 43.4572 4.20374C42.4314 4.73001 41.4279 5.30534 40.4512 5.92527C39.4745 6.54965 38.529 7.20972 37.6147 7.91884C36.7004 8.62797 35.8174 9.37277 34.97 10.1622C34.1226 10.9471 33.3154 11.7722 32.5438 12.633C31.7722 13.4937 31.0408 14.3902 30.3495 15.3178C29.6627 16.2455 29.016 17.2044 28.4139 18.1945C27.8118 19.1801 27.2543 20.1925 26.7459 21.2317C26.2375 22.2708 25.7736 23.3278 25.3633 24.4071C24.9486 25.4909 24.5873 26.588 24.2707 27.6985C23.9585 28.8135 23.6998 29.9374 23.4902 31.0747C23.2806 32.212 23.12 33.3582 23.0174 34.5088C22.9104 35.6639 22.8613 36.8146 22.8613 37.9742C22.8613 38.4023 22.9416 38.8171 23.1066 39.2185C23.2716 39.6154 23.508 39.9677 23.8113 40.271C24.1146 40.5743 24.4669 40.8107 24.8683 40.9757C25.2652 41.1407 25.68 41.221 26.1081 41.221C26.5408 41.221 26.9555 41.1407 27.3525 40.9757C27.7538 40.8107 28.1017 40.5743 28.4095 40.271C28.7127 39.9677 28.9491 39.6154 29.1141 39.2185C29.2791 38.8171 29.3594 38.4023 29.3594 37.9742C30.2546 2.13112 77.7804 -4.45328 89.97 26.2038Z" fill="#5551FF"/>
<path d="M26.9243 145.815C26.2999 145.819 25.68 145.886 25.069 146.015C24.4579 146.145 23.8603 146.332 23.285 146.573C22.7097 146.818 22.1611 147.117 21.6437 147.469C21.1264 147.817 20.6492 148.218 20.2077 148.66C19.7706 149.106 19.3737 149.592 19.0302 150.114C18.6868 150.636 18.3925 151.184 18.1561 151.764C17.9197 152.339 17.7369 152.937 17.6164 153.553C17.496 154.164 17.4336 154.783 17.4336 155.412C17.4336 156.037 17.496 156.657 17.6164 157.272C17.7369 157.883 17.9197 158.481 18.1561 159.061C18.3925 159.64 18.6868 160.189 19.0302 160.711C19.3737 161.232 19.7706 161.714 20.2077 162.16C20.6492 162.606 21.1264 163.003 21.6437 163.355C22.1611 163.703 22.7097 164.002 23.285 164.247C23.8603 164.493 24.4579 164.68 25.069 164.805C25.68 164.934 26.2999 165.001 26.9243 165.01C27.5531 165.001 28.1686 164.934 28.7841 164.805C29.3951 164.68 29.9882 164.493 30.5636 164.247C31.1433 164.002 31.6875 163.703 32.2048 163.355C32.7222 163.003 33.2038 162.606 33.6409 162.16C34.0824 161.714 34.4749 161.232 34.8228 160.711C35.1662 160.189 35.4561 159.636 35.6969 159.061C35.9333 158.481 36.1117 157.883 36.2366 157.272C36.357 156.657 36.415 156.037 36.415 155.412C36.415 154.783 36.357 154.164 36.2366 153.553C36.1117 152.937 35.9333 152.339 35.6969 151.764C35.4561 151.184 35.1662 150.636 34.8228 150.114C34.4749 149.592 34.0824 149.106 33.6409 148.66C33.2038 148.218 32.7222 147.817 32.2048 147.469C31.6875 147.117 31.1433 146.818 30.5636 146.573C29.9882 146.332 29.3951 146.145 28.7841 146.015C28.1686 145.886 27.5531 145.819 26.9243 145.815ZM26.9243 158.507C26.5184 158.503 26.1304 158.418 25.7602 158.258C25.3856 158.097 25.06 157.87 24.7746 157.58C24.4892 157.29 24.2706 156.96 24.119 156.581C23.9629 156.206 23.8871 155.818 23.8871 155.412C23.8871 155.006 23.9629 154.614 24.119 154.239C24.2706 153.865 24.4892 153.53 24.7746 153.24C25.06 152.95 25.3856 152.727 25.7602 152.567C26.1304 152.406 26.5184 152.322 26.9243 152.313C27.3301 152.322 27.7181 152.406 28.0928 152.567C28.4629 152.727 28.793 152.95 29.0784 153.24C29.3594 153.53 29.5779 153.865 29.734 154.239C29.8857 154.614 29.9615 155.006 29.9615 155.412C29.9615 155.818 29.8857 156.206 29.734 156.581C29.5779 156.96 29.3594 157.29 29.0784 157.58C28.793 157.87 28.4629 158.097 28.0928 158.258C27.7181 158.418 27.3301 158.503 26.9243 158.507Z" fill="#5551FF"/>
<path d="M164.777 102.705C164.536 102.349 164.237 102.05 163.876 101.813C163.519 101.573 163.126 101.412 162.707 101.327C162.283 101.242 161.86 101.242 161.436 101.327C161.017 101.412 160.624 101.577 160.268 101.813L149.72 108.882C149.363 109.123 149.064 109.422 148.823 109.779C148.583 110.14 148.422 110.528 148.337 110.952C148.257 111.375 148.257 111.799 148.342 112.223C148.427 112.642 148.587 113.034 148.828 113.391C149.069 113.753 149.368 114.051 149.724 114.288C150.086 114.529 150.474 114.689 150.897 114.774C151.321 114.854 151.745 114.854 152.168 114.769C152.588 114.685 152.98 114.524 153.337 114.283L155.946 112.534C156.835 111.939 157.964 112.708 157.663 113.735C157.386 114.662 157.07 115.577 156.713 116.473C156.356 117.37 155.959 118.253 155.518 119.113C155.081 119.974 154.604 120.813 154.086 121.629C153.569 122.445 153.016 123.239 152.427 124.006C151.838 124.773 151.214 125.509 150.558 126.218C149.903 126.927 149.211 127.605 148.493 128.247C147.775 128.894 147.026 129.505 146.25 130.08C145.474 130.66 144.676 131.2 143.851 131.699C143.021 132.203 142.178 132.667 141.309 133.091C140.439 133.514 139.556 133.902 138.65 134.241C137.745 134.585 136.831 134.888 135.899 135.147C134.967 135.405 134.026 135.619 133.076 135.789C132.121 135.963 131.167 136.092 130.203 136.172C129.24 136.257 128.272 136.297 127.309 136.293C126.341 136.284 125.378 136.235 124.414 136.141C123.451 136.048 122.497 135.909 121.547 135.726C120.597 135.544 119.66 135.321 118.732 135.049C117.805 134.781 116.891 134.469 115.99 134.116C115.089 133.764 114.206 133.372 113.345 132.935C112.48 132.502 111.637 132.029 110.821 131.516C110 131.003 109.206 130.455 108.435 129.871C107.667 129.286 106.923 128.666 106.214 128.015C105.5 127.36 104.818 126.677 104.171 125.959C103.52 125.246 102.904 124.501 102.324 123.725C101.745 122.953 101.201 122.155 100.692 121.334C100.188 120.509 99.7199 119.666 99.2873 118.801C98.8591 117.936 98.4711 117.048 98.1232 116.147C97.7754 115.247 97.4676 114.332 97.2045 113.4C96.9414 112.468 96.7228 111.531 96.5444 110.582C96.3705 109.632 96.2367 108.673 96.1475 107.709C96.0583 106.746 96.0137 105.783 96.0137 104.815C96.0137 104.387 95.9334 103.972 95.7684 103.575C95.6034 103.174 95.367 102.826 95.0637 102.518C94.7605 102.215 94.4081 101.978 94.0068 101.813C93.6098 101.648 93.195 101.568 92.7669 101.568C92.3343 101.568 91.9195 101.648 91.5226 101.813C91.1212 101.978 90.7733 102.215 90.4656 102.518C90.1623 102.826 89.9259 103.174 89.7609 103.575C89.5959 103.972 89.5156 104.387 89.5156 104.815C90.6852 148.578 149.359 156.429 163.241 117.346C163.73 115.968 165.63 115.656 166.445 116.87C166.685 117.222 166.989 117.512 167.345 117.744C167.702 117.972 168.09 118.128 168.51 118.208C168.929 118.284 169.344 118.284 169.763 118.195C170.178 118.11 170.566 117.949 170.918 117.713C171.275 117.477 171.569 117.182 171.805 116.825C172.046 116.473 172.207 116.09 172.292 115.67C172.381 115.256 172.385 114.836 172.305 114.417C172.229 113.998 172.073 113.61 171.846 113.253L164.777 102.705Z" fill="#5551FF"/>
<path d="M29.3013 101.229C28.9802 100.912 28.6145 100.671 28.1952 100.506C27.7804 100.341 27.3478 100.266 26.8974 100.275C26.4514 100.288 26.0232 100.386 25.6129 100.573C25.2071 100.761 24.8503 101.019 24.547 101.349L15.6673 110.118C15.373 110.421 15.1411 110.773 14.9805 111.166C14.8244 111.558 14.7441 111.968 14.7441 112.397C14.7441 112.82 14.8289 113.231 14.9894 113.623C15.15 114.015 15.3819 114.368 15.6807 114.667C15.9795 114.97 16.3229 115.206 16.7154 115.376C17.1079 115.541 17.5137 115.63 17.9419 115.634C18.3656 115.643 18.7759 115.568 19.1728 115.416C19.5698 115.26 19.9221 115.037 20.2298 114.742C21.5107 113.481 23.6773 114.389 23.6773 116.186V137.484C23.6773 137.916 23.7576 138.331 23.9226 138.728C24.0876 139.129 24.324 139.477 24.6273 139.785C24.9306 140.088 25.2829 140.324 25.6798 140.489C26.0812 140.655 26.496 140.735 26.9241 140.735C27.3568 140.735 27.7715 140.655 28.1685 140.489C28.5654 140.324 28.9177 140.088 29.2255 139.785C29.5287 139.477 29.7651 139.129 29.9301 138.728C30.0951 138.331 30.1754 137.916 30.1754 137.484V116.234C30.1754 114.449 32.3382 113.562 33.5917 114.832C33.895 115.126 34.2429 115.353 34.6398 115.514C35.0323 115.675 35.4426 115.755 35.8707 115.75C36.2944 115.75 36.7047 115.67 37.0972 115.505C37.4897 115.345 37.8375 115.113 38.1408 114.814C38.4441 114.515 38.6805 114.172 38.8455 113.779C39.015 113.391 39.0997 112.981 39.1086 112.557C39.1131 112.133 39.0417 111.719 38.8856 111.326C38.734 110.929 38.511 110.577 38.2166 110.265L29.3013 101.229Z" fill="#5551FF"/>
<path d="M149.964 40.9221C150.271 41.2299 150.624 41.4618 151.021 41.6268C151.418 41.7918 151.832 41.8765 152.265 41.8765C152.693 41.8765 153.108 41.7918 153.509 41.6268C153.906 41.4618 154.259 41.2299 154.562 40.9221L174.912 20.5716C175.216 20.2683 175.452 19.916 175.617 19.519C175.782 19.1221 175.867 18.7073 175.867 18.2747C175.867 17.8421 175.787 17.4273 175.622 17.0304C175.456 16.629 175.22 16.2811 174.917 15.9734C174.609 15.6701 174.257 15.4337 173.86 15.2687C173.463 15.1037 173.048 15.0234 172.616 15.0234C172.183 15.0234 171.768 15.1037 171.371 15.2732C170.974 15.4382 170.622 15.6701 170.314 15.9779L159.56 26.7342C155.531 30.7643 148.998 30.7647 144.969 26.7352C144.661 26.4408 144.308 26.2133 143.912 26.0572C143.519 25.9012 143.109 25.8253 142.681 25.8298C142.257 25.8343 141.847 25.919 141.454 26.0795C141.066 26.2446 140.718 26.4809 140.415 26.7798C140.116 27.0786 139.884 27.4264 139.719 27.8189C139.554 28.2114 139.469 28.6217 139.465 29.0454C139.461 29.4691 139.536 29.8794 139.692 30.2763C139.849 30.6733 140.076 31.0211 140.37 31.3289L149.964 40.9221Z" fill="#5551FF"/>
</svg>
