<svg xmlns="http://www.w3.org/2000/svg" xmlns:xlink="http://www.w3.org/1999/xlink" version="1.1" x="0px" y="0px" viewBox="0 0 100 125" enable-background="new 0 0 100 100" xml:space="preserve"><path d="M95.724,33.776l-18.103-0.948c-2.594-0.078-5.066-0.033-8.088,0.122c-2.39,0.123-5.098,0.262-7.17,0.914l-0.005,0.002  c-0.626,0.162-6.277,1.588-11.87,1.732L50,35.614l-0.487-0.016c-5.593-0.144-11.244-1.57-11.87-1.732l-0.005-0.002  c-2.072-0.652-4.78-0.791-7.17-0.914c-3.021-0.155-5.494-0.2-8.088-0.122L4.276,33.776C3.361,33.776,2,34.331,2,35.859v0v6.065  v0.153l0.085,0.127c0.439,0.65,1.037,1.143,1.565,1.578c0.822,0.678,1.327,1.126,1.341,1.742c-0.084,1.311,0.215,2.575,0.504,3.797  l0.114,0.485c0.382,1.655,0.741,3.019,1.131,4.294c0.945,3.09,2.08,5.389,3.571,7.234c3.038,3.76,7.939,5.64,14.987,5.747  l0.567,0.004c6.746,0,11.749-1.825,14.869-5.423c1.881-2.17,2.94-5.04,3.792-7.346c0.369-1,0.72-2.006,1.071-3.013l0.328-0.938  c0.093-0.266,0.183-0.539,0.274-0.815c0.335-1.019,0.683-2.073,1.275-2.95c0.428-0.784,1.381-1.287,2.523-1.358  c1,0.071,2.096,0.574,2.523,1.358c0.593,0.877,0.94,1.931,1.275,2.95c0.091,0.276,0.181,0.549,0.274,0.815l0.328,0.938  c0.351,1.006,0.702,2.013,1.071,3.013c0.852,2.306,1.912,5.176,3.792,7.346c3.12,3.599,8.123,5.423,14.869,5.423l0.567-0.004  c7.047-0.107,11.949-1.986,14.987-5.747c1.491-1.845,2.625-4.144,3.571-7.234c0.39-1.275,0.75-2.639,1.131-4.294l0.114-0.485  c0.289-1.223,0.588-2.486,0.504-3.797c0.014-0.615,0.519-1.064,1.341-1.742c0.528-0.435,1.126-0.928,1.565-1.578L98,42.077v-0.153  v-6.065v0C98,34.331,96.639,33.776,95.724,33.776z M37.987,57.737c-2.263,2.868-5.594,4.757-9.379,5.32  c-0.827,0.123-1.685,0.185-2.55,0.185c-4.077,0-7.18-0.845-9.488-2.583c-2.499-1.882-4.213-5-5.094-9.266  c-0.765-3.698-1.177-7.5,0.964-10.25c2.372-3.046,6.808-3.546,9.939-3.658c0.865-0.031,1.749-0.05,2.641-0.05  c4.564,0,8.213,0.539,11.154,1.647c1.941,0.731,5.223,2.561,5.401,6.603C41.774,50.202,40.467,54.594,37.987,57.737z M88.524,51.394  c-0.881,4.267-2.595,7.384-5.094,9.266c-2.308,1.738-5.411,2.583-9.488,2.583c-0.865,0-1.723-0.062-2.55-0.185  c-3.786-0.563-7.117-2.452-9.379-5.32c-2.48-3.143-3.788-7.536-3.588-12.052c0.178-4.042,3.46-5.872,5.401-6.603  c2.941-1.108,6.59-1.647,11.154-1.647c0.892,0,1.775,0.02,2.641,0.05c3.131,0.112,7.567,0.612,9.939,3.658  C89.701,43.894,89.289,47.695,88.524,51.394z"/><text x="0" y="115" fill="#000000" font-size="5px" font-weight="bold" font-family="'Helvetica Neue', Helvetica, Arial-Unicode, Arial, Sans-serif">Created by Jayson Lane</text><text x="0" y="120" fill="#000000" font-size="5px" font-weight="bold" font-family="'Helvetica Neue', Helvetica, Arial-Unicode, Arial, Sans-serif">from the Noun Project</text></svg>